<?xml version="1.0" encoding="UTF-8" standalone="no"?>
<!-- Created with Inkscape (http://www.inkscape.org/) -->

<svg
   xmlns:dc="http://purl.org/dc/elements/1.1/"
   xmlns:cc="http://creativecommons.org/ns#"
   xmlns:rdf="http://www.w3.org/1999/02/22-rdf-syntax-ns#"
   xmlns:svg="http://www.w3.org/2000/svg"
   xmlns="http://www.w3.org/2000/svg"
   xmlns:sodipodi="http://sodipodi.sourceforge.net/DTD/sodipodi-0.dtd"
   xmlns:inkscape="http://www.inkscape.org/namespaces/inkscape"
   width="34.11235mm"
   height="34.11235mm"
   viewBox="0 0 34.11235 34.112351"
   version="1.1"
   id="svg8"
   inkscape:version="0.92.5 (2060ec1f9f, 2020-04-08)"
   sodipodi:docname="logo_blue.svg">
  <defs
     id="defs2" />
  <sodipodi:namedview
     id="base"
     pagecolor="#ffffff"
     bordercolor="#666666"
     borderopacity="1.0"
     inkscape:pageopacity="0.0"
     inkscape:pageshadow="2"
     inkscape:zoom="5.6"
     inkscape:cx="72.898761"
     inkscape:cy="52.264034"
     inkscape:document-units="mm"
     inkscape:current-layer="layer1"
     showgrid="false"
     fit-margin-top="0"
     fit-margin-left="0"
     fit-margin-right="0"
     fit-margin-bottom="0"
     inkscape:window-width="2194"
     inkscape:window-height="1135"
     inkscape:window-x="455"
     inkscape:window-y="879"
     inkscape:window-maximized="0" />
  <metadata
     id="metadata5">
    <rdf:RDF>
      <cc:Work
         rdf:about="">
        <dc:format>image/svg+xml</dc:format>
        <dc:type
           rdf:resource="http://purl.org/dc/dcmitype/StillImage" />
        <dc:title></dc:title>
      </cc:Work>
    </rdf:RDF>
  </metadata>
  <g
     inkscape:label="Layer 1"
     inkscape:groupmode="layer"
     id="layer1"
     transform="translate(-51.278282,-36.120972)">
    <g
       inkscape:export-ydpi="63.136467"
       inkscape:export-xdpi="63.136467"
       inkscape:export-filename="/home/twak/Desktop/logo.png"
       transform="matrix(0.13676532,0,0,0.13676532,35.020385,-10.145919)"
       id="g3910"
       style="fill:#1a1a1a;stroke-width:1.9345789">
      <path
         inkscape:connector-curvature="0"
         id="path2788"
         style="fill:#1a1a1a;stroke-width:1.9345789"
         d="m 336.10698,496.28703 c -1.81824,-0.30465 -7.38914,-2.12968 -9.05781,-2.96735 -0.79272,-0.39795 -2.17006,-0.89255 -3.06074,-1.09912 -0.89072,-0.20656 -1.8158,-0.48066 -2.05583,-0.60911 -0.62484,-0.33442 -2.03085,-3.43318 -3.30303,-7.27985 -1.14041,-3.44826 -2.74318,-7.21919 -3.06837,-7.21919 -0.10321,0 -0.26185,0.69209 -0.35256,1.538 -0.0907,0.8459 -0.38408,3.03293 -0.65199,4.86007 -0.26791,1.82715 -0.48719,3.95882 -0.48731,4.73704 -2.2e-4,1.47966 -0.21832,1.71601 -0.9623,1.04272 -0.78723,-0.71243 -3.58799,-1.62203 -7.24324,-2.35235 -2.02317,-0.40425 -4.51827,-0.9494 -5.54467,-1.21146 -1.0264,-0.26207 -2.50391,-0.55144 -3.28337,-0.64304 -1.62661,-0.19118 -1.99611,-0.58786 -1.65511,-1.77687 0.11972,-0.41744 0.16401,-0.96422 0.0984,-1.21507 -0.0656,-0.25084 0.05,-1.42587 0.25689,-2.61117 0.45833,-2.6258 0.37495,-11.89403 -0.20061,-22.30035 -0.20587,-3.72196 -0.49213,-9.25876 -0.63614,-12.304 -0.14403,-3.04524 -0.36513,-6.53343 -0.49137,-7.75152 -0.3202,-3.09007 -0.66289,-6.99069 -0.99453,-11.31968 -0.15552,-2.03016 -0.42941,-4.3928 -0.60861,-5.25032 -0.27807,-1.33057 -0.27273,-1.738 0.0365,-2.77935 0.43293,-1.45782 0.77267,-1.63291 3.78193,-1.94914 1.15042,-0.12089 2.64536,-0.32493 3.32208,-0.45343 0.67672,-0.12849 3.38975,-0.52259 6.02896,-0.87577 2.63921,-0.35319 5.02003,-0.74213 5.29072,-0.86432 0.27069,-0.12219 0.91643,-0.36573 1.43499,-0.54119 0.86502,-0.2927 0.96591,-0.27881 1.22262,0.16829 0.34486,0.60065 0.49989,5.49923 0.44902,14.18935 -0.0217,3.7064 0.0587,6.62574 0.18464,6.70356 0.23872,0.14754 0.95068,-0.78791 1.4281,-1.87639 0.16042,-0.36578 0.76934,-1.30704 1.35317,-2.09168 1.0729,-1.44204 5.35285,-6.73627 5.62935,-6.96345 0.40431,-0.33221 6.09776,-7.36452 8.55721,-10.56951 1.97353,-2.57181 2.59622,-3.59977 2.38631,-3.93943 -0.17014,-0.27527 0.1411,-0.47654 1.76951,-1.14424 1.18817,-0.48719 1.36303,-0.50002 2.35671,-0.17289 1.0089,0.33215 1.16769,0.51857 2.64614,3.10659 0.86505,1.51429 1.92671,3.31446 2.35924,4.0004 0.43254,0.68593 1.53443,2.67918 2.44865,4.42943 0.91421,1.75026 1.84565,3.45913 2.06983,3.79749 0.2242,0.33836 0.55867,1.26575 0.74328,2.06086 0.28939,1.24632 0.28668,1.48384 -0.0196,1.72256 -1.08344,0.8445 -9.33519,11.83532 -9.33519,12.43392 0,0.55391 -2.30987,3.98759 -6.59442,9.80278 -1.41482,1.92025 -2.51223,3.93452 -2.3813,4.37076 0.0813,0.27069 0.4051,1.54415 0.71966,2.82992 0.31457,1.28577 0.68214,2.61517 0.81684,2.95423 0.13471,0.33907 0.53963,1.834 0.89984,3.32209 0.36024,1.48807 0.75377,3.03781 0.87452,3.44384 0.12078,0.40603 0.2937,1.29192 0.38428,1.96864 0.24743,1.84822 2.46233,10.74316 3.06377,12.30399 0.49293,1.2792 1.59534,7.05174 1.83896,9.62921 0.0878,0.92976 0.27388,2.5073 0.41339,3.50564 0.1395,0.99835 0.18357,2.18876 0.0979,2.64536 -0.13999,0.74622 -0.23552,0.82729 -0.94435,0.80143 -0.43375,-0.0158 -1.34769,-0.12244 -2.031,-0.23693 z m -0.96574,-4.96351 c -0.11478,-0.50516 -1.28461,-6.75072 -1.87825,-10.02776 -0.13486,-0.74439 -0.509,-2.40543 -0.83144,-3.69119 -2.46035,-9.81086 -3.47861,-13.60266 -4.43783,-16.52561 -0.60651,-1.84818 -1.10275,-3.80103 -1.10275,-4.33966 0,-0.53863 -0.18641,-1.55653 -0.41426,-2.26198 -0.26837,-0.83101 -0.33336,-1.39649 -0.18455,-1.60596 0.12633,-0.17782 0.88793,-1.35743 1.69243,-2.62137 0.80451,-1.26393 1.91736,-2.90711 2.47296,-3.6515 0.55562,-0.74439 1.74616,-2.4608 2.64565,-3.81424 0.8995,-1.35344 3.07719,-4.56478 4.83929,-7.13632 8.06276,-11.76643 7.58694,-10.85035 6.4784,-12.47274 -0.399,-0.58391 -1.69975,-2.94417 -2.8906,-5.24502 -1.19086,-2.30085 -2.38912,-4.61473 -2.66281,-5.14196 l -0.49762,-0.9586 -0.61063,0.71252 c -0.33585,0.39189 -2.07782,2.3182 -3.871,4.28068 -3.18332,3.48381 -7.10372,8.22304 -10.07641,12.18096 -1.91557,2.55043 -4.22896,5.38742 -6.43864,7.89589 -0.97145,1.10281 -2.18002,2.65652 -2.68571,3.45269 -1.05778,1.66539 -1.34601,1.91514 -1.73132,1.5002 -0.74501,-0.80227 -1.64694,-7.33592 -1.96057,-14.20222 -0.23181,-5.07506 -0.23518,-5.16625 -0.29446,-7.9609 l -0.0514,-2.4241 -1.65745,0.16914 c -0.9116,0.093 -1.7308,0.21448 -1.82045,0.26989 -0.0897,0.0554 -1.03253,0.2182 -2.09527,0.36177 -1.06275,0.14357 -3.2611,0.58133 -4.88523,0.97279 -1.62413,0.39147 -3.28516,0.7451 -3.6912,0.78583 -0.55823,0.056 -0.77119,0.22408 -0.87339,0.68926 -0.0743,0.33836 -0.0516,0.78131 0.0506,0.98432 0.44402,0.88259 1.37174,10.82956 1.57215,16.85648 0.072,2.16551 0.29726,5.76442 0.50058,7.9976 0.57836,6.35239 0.58933,6.68986 0.70277,21.62687 0.059,7.76679 0.20071,14.21488 0.31491,14.32909 0.11421,0.1142 1.09028,0.32688 2.16908,0.47262 1.07876,0.14574 3.23487,0.49093 4.79132,0.7671 1.55645,0.27616 3.34838,0.56015 3.98206,0.63108 1.15097,0.12883 1.1523,0.1281 1.28127,-0.7005 0.071,-0.45621 0.19295,-1.71535 0.27098,-2.7981 0.078,-1.08276 0.25642,-3.24211 0.39639,-4.79856 0.27258,-3.03073 0.31717,-10.43249 0.0708,-11.74773 -0.17216,-0.91885 0.35157,-1.31374 1.011,-0.76232 1.23546,1.03309 1.62498,1.79436 3.0015,5.86589 0.2059,0.60905 0.51555,1.43956 0.68805,1.8456 0.57449,1.35206 2.53442,6.37031 3.31578,8.48976 0.42412,1.15042 1.03031,2.64536 1.34709,3.32207 0.3168,0.67672 0.93025,2.13353 1.36328,3.23736 l 0.78731,2.00695 5.45338,1.77114 c 2.99934,0.97412 5.56411,1.80635 5.69945,1.84938 0.66201,0.21048 0.86485,0.0916 0.74484,-0.43659 z" />
      <path
         inkscape:connector-curvature="0"
         id="path2784"
         style="fill:#1a1a1a;stroke-width:1.9345789"
         d="m 161.25865,492.02337 c -0.0564,-0.055 -0.43474,-0.15774 -0.84078,-0.22842 -1.21186,-0.21097 -9.08481,-2.41491 -9.35103,-2.61772 -0.13534,-0.10311 -0.9744,-0.42634 -1.86457,-0.71829 -1.07172,-0.3515 -1.89476,-0.81586 -2.43627,-1.37456 l -0.81779,-0.84375 0.16971,-2.62494 c 0.0933,-1.44373 0.40986,-4.13431 0.7034,-5.97908 0.46808,-2.94177 0.53494,-4.36761 0.54384,-11.5978 0.006,-4.53403 -0.0828,-9.21262 -0.19633,-10.39688 l -0.20649,-2.1532 -1.51591,0.0163 c -0.83375,0.009 -4.61652,0.26774 -8.40615,0.5751 -3.78963,0.30735 -6.94561,0.53206 -7.01328,0.49936 -0.0677,-0.0327 -0.16004,-3.63765 -0.20527,-8.01102 -0.0452,-4.37335 -0.16736,-8.73031 -0.27141,-9.68211 -0.10406,-0.95181 -0.1454,-1.8413 -0.0919,-1.97664 0.19516,-0.49351 1.42269,-1.20388 2.39831,-1.3879 2.16651,-0.40865 6.41464,-1.49503 12.68896,-3.24498 4.62724,-1.29057 4.31683,-1.08886 4.67705,-3.03914 0.17056,-0.92346 0.8597,-3.34006 1.53143,-5.37021 1.20458,-3.64065 1.5771,-5.14959 2.2695,-9.19315 0.19372,-1.13126 0.38634,-2.07288 0.42807,-2.09251 0.0417,-0.0196 0.41993,-0.27608 0.84044,-0.56988 0.9153,-0.63952 4.02542,-0.89933 15.81244,-1.32095 l 7.47207,-0.26727 0.50665,0.54383 0.50665,0.54383 -0.55746,2.3638 c -0.899,3.81205 -0.95057,4.17187 -1.09684,7.65453 -0.14657,3.48937 -0.5249,5.53992 -1.3621,7.3824 -0.64215,1.41321 -0.67244,2.08497 -0.0833,1.84826 0.23686,-0.0952 1.64874,-0.3831 3.13752,-0.63985 7.56539,-1.30466 12.4913,-1.97052 12.74485,-1.72281 0.21931,0.21429 -0.42161,3.57474 -0.93904,4.92346 -0.18603,0.48492 -0.79222,2.64321 -1.3471,4.79623 -0.55486,2.15301 -1.11414,4.11129 -1.24282,4.35174 -0.12868,0.24045 -0.23331,0.63824 -0.2325,0.884 8.1e-4,0.24574 -0.45309,1.88638 -1.00867,3.64585 -1.06447,3.37113 -1.67361,4.3064 -2.80474,4.3064 -0.322,0 -0.88949,0.11559 -1.26108,0.25687 -0.3716,0.14128 -2.4551,0.36024 -4.63002,0.48658 -3.1282,0.18173 -8.29363,0.84387 -8.70134,1.11541 -0.0393,0.0262 -0.16609,0.58757 -0.28176,1.24756 -0.11568,0.65999 -0.39028,2.17843 -0.61024,3.37432 -0.21995,1.19588 -0.56682,3.67984 -0.77084,5.5199 -0.20401,1.84006 -0.54657,4.40516 -0.76124,5.70022 -0.21468,1.29506 -0.42441,2.74223 -0.46607,3.21594 -0.0417,0.4737 -0.1483,1.6918 -0.23699,2.70688 -0.0887,1.01508 -0.48641,3.89421 -0.88382,6.39807 -1.29793,8.17737 -1.29687,8.16844 -1.02289,8.60716 0.32815,0.52544 -0.17557,3.15581 -0.74328,3.8814 -0.21944,0.28047 -1.9271,0.44395 -2.16955,0.20769 z m -0.12902,-5.37537 c 0.0697,-0.57521 0.1875,-2.04246 0.26178,-3.26056 0.12183,-1.99792 1.03076,-8.09159 1.98209,-13.28831 0.67854,-3.7066 1.65827,-12.05661 1.68909,-14.39568 0.0261,-1.98412 -0.17356,-5.74587 -0.39845,-7.50544 -0.0575,-0.44977 0.0877,-0.49449 1.68629,-0.51922 3.70559,-0.0573 15.41155,-1.01031 16.22099,-1.32056 0.38344,-0.14697 0.63196,-0.72349 1.07666,-2.49772 0.31798,-1.26866 0.68318,-2.50844 0.81157,-2.75505 0.12838,-0.24662 0.3378,-1.90766 0.46537,-3.6912 0.12758,-1.78355 0.38375,-3.74112 0.56928,-4.35017 0.18552,-0.60905 0.34251,-1.4709 0.34886,-1.91523 0.011,-0.77263 -0.0226,-0.80224 -0.772,-0.67901 -0.43094,0.0709 -1.72478,0.24519 -2.87521,0.38739 -1.15042,0.1422 -3.80808,0.57684 -5.90591,0.96586 -6.27083,1.16285 -6.24228,1.16251 -5.69026,0.0688 0.11862,-0.23501 0.394,-1.31319 0.61197,-2.39594 0.21797,-1.08275 0.6822,-3.02063 1.03161,-4.3064 1.07628,-3.96045 3.30843,-12.85201 3.30843,-13.17879 0,-0.24167 -1.09001,-0.28632 -4.98311,-0.20414 -5.62615,0.11876 -13.19112,0.55398 -14.16736,0.81507 -0.81148,0.21702 -1.25901,1.56967 -2.01195,6.08108 -0.54131,3.24339 -1.4308,7.07527 -2.04846,8.82454 -0.39587,1.12118 -0.41279,1.19444 -0.41279,1.78725 0,0.2386 -0.20768,0.54312 -0.46151,0.67672 -0.25382,0.1336 -0.83519,0.45405 -1.29191,0.71211 -0.45673,0.25805 -1.71631,0.79053 -2.79906,1.18329 -5.64018,2.04592 -9.02128,3.22122 -10.46921,3.63918 -0.88568,0.25566 -1.89293,0.57228 -2.23834,0.7036 l -0.62802,0.23877 -0.15873,4.26538 c -0.0976,2.62293 -0.30507,4.78654 -0.53876,5.61882 -0.38585,1.37416 -0.77528,4.42944 -0.56458,4.42944 0.0634,0 1.21446,-0.16261 2.5579,-0.36136 4.08398,-0.60418 11.90021,-1.28562 14.3775,-1.25347 2.19933,0.0285 2.34232,0.0619 2.41473,0.56381 0.0423,0.29341 -0.0352,0.74315 -0.17239,0.99942 -0.14483,0.27062 -0.26456,2.88075 -0.2856,6.22621 -0.0221,3.51291 -0.1346,5.88028 -0.28838,6.06787 -0.17305,0.21111 -0.17055,0.3076 0.008,0.3076 0.42034,0 -0.13635,9.72246 -1.08493,18.94816 -0.29938,2.91169 -0.39886,2.75445 1.99242,3.14901 0.81206,0.13399 2.86068,0.69234 4.55248,1.24077 4.01786,1.30248 4.11952,1.30196 4.27991,-0.0219 z" />
      <path
         inkscape:connector-curvature="0"
         id="path2780"
         style="fill:#1a1a1a;stroke-width:1.9345789"
         d="m 188.95963,488.77422 c -0.3656,-0.79722 -1.25355,-2.88906 -1.97321,-4.64854 -1.25927,-3.07873 -2.6155,-6.34128 -4.04063,-9.72015 -2.16502,-5.13311 -2.10087,-4.93923 -1.72286,-5.20685 0.29891,-0.21163 0.29123,-0.23219 -0.0466,-0.12487 -0.32083,0.10191 -0.64657,-0.46554 -1.57589,-2.74519 -0.6443,-1.58051 -1.5143,-3.43019 -1.93334,-4.1104 -1.4835,-2.40815 -1.94693,-3.46569 -1.78714,-4.07823 0.12672,-0.48579 2.49126,-2.43654 2.95337,-2.43654 0.0686,0 1.10243,-0.56631 2.29736,-1.25846 1.19494,-0.69216 3.27997,-1.83743 4.63341,-2.54505 1.35344,-0.70762 3.01582,-1.63643 3.69417,-2.064 1.55484,-0.98005 2.74744,-1.34662 3.07601,-0.94547 1.18593,1.44789 2.41157,3.1972 3.59331,5.12862 0.77384,1.26476 1.54827,2.45526 1.72094,2.64556 0.38972,0.42951 0.42027,0.30281 0.97354,-4.0372 0.2243,-1.75947 0.44205,-3.3797 0.4839,-3.60052 0.0418,-0.2208 0.25546,-2.15868 0.47471,-4.30639 0.21924,-2.14771 0.50497,-4.245 0.63494,-4.66064 0.12998,-0.41564 0.23632,-1.27384 0.23632,-1.90712 0,-0.98065 0.0717,-1.15141 0.48371,-1.15141 0.52734,0 4.27932,-1.26813 9.11341,-3.08025 7.27701,-2.72788 6.87926,-2.72525 8.67251,-0.0573 0.7505,1.11659 1.79902,2.80532 2.33004,3.75272 1.47313,2.62825 3.57125,5.80982 3.72799,5.65308 0.0769,-0.0769 0.16047,-0.38371 0.18566,-0.68175 0.20344,-2.40719 0.37016,-4.11951 0.47207,-4.84829 0.0662,-0.4737 0.17285,-1.30422 0.23692,-1.8456 0.0641,-0.54137 0.28842,-2.14704 0.49855,-3.56816 0.21013,-1.42111 0.48535,-3.67921 0.61159,-5.01799 0.12625,-1.3388 0.39785,-3.01311 0.60355,-3.7207 l 0.374,-1.28654 4.00124,-1.26368 c 2.20068,-0.69502 4.49954,-1.42316 5.10859,-1.6181 3.02801,-0.96914 11.91253,-3.02858 13.58433,-3.14884 1.27206,-0.0915 1.41023,-0.0531 1.47648,0.41049 0.11192,0.78302 -0.71466,4.63679 -1.90424,8.87816 -0.1898,0.67672 -0.41036,1.67334 -0.49014,2.21472 -0.0798,0.54138 -0.19547,1.15935 -0.25708,1.37329 -0.15572,0.54053 -1.03228,5.75251 -1.46588,8.71599 -0.19802,1.35344 -0.46669,3.01448 -0.59706,3.6912 -0.13038,0.67672 -0.3044,1.83945 -0.38674,2.58384 -0.0823,0.74439 -0.3751,2.40543 -0.65058,3.6912 -0.27549,1.28577 -0.55383,2.6146 -0.61855,2.95296 -0.0647,0.33836 -0.17733,0.7813 -0.25026,0.98432 -0.0729,0.20302 -0.1637,0.64596 -0.20169,0.98432 -0.038,0.33836 -0.39976,1.83329 -0.80395,3.32208 -0.40416,1.48878 -0.97701,4.03571 -1.27299,5.65984 -0.29601,1.62413 -0.75798,4.05761 -1.0266,5.40772 -0.26862,1.35012 -0.55272,3.17727 -0.63132,4.06032 -0.21438,2.40852 -0.46964,2.75333 -2.44938,3.30877 -0.92686,0.26005 -2.57111,0.85326 -3.65387,1.31823 -2.28978,0.98332 -2.52556,1.06041 -6.27504,2.05178 -1.55645,0.41152 -3.08562,0.9125 -3.39815,1.11327 -0.31253,0.20077 -0.80685,0.33051 -1.0985,0.28831 -0.73469,-0.10631 -2.08468,-1.98052 -3.75543,-5.21368 -0.77806,-1.50568 -1.60472,-3.01444 -1.83702,-3.3528 -0.2323,-0.33836 -0.98669,-1.6672 -1.67643,-2.95296 -0.68974,-1.28577 -1.41189,-2.55314 -1.60477,-2.81639 -0.32828,-0.44802 -0.36185,-0.41263 -0.52511,0.55368 -0.0959,0.56777 -0.24772,1.03231 -0.33734,1.03231 -0.0896,0 -0.17097,0.41526 -0.1808,0.9228 -0.0195,1.00493 -0.95175,7.21029 -1.3217,8.79735 -0.1262,0.54138 -0.29303,2.90728 -0.37074,5.25756 -0.0777,2.35027 -0.20184,4.3712 -0.27585,4.49095 -0.074,0.11976 -0.93086,0.217 -1.90412,0.2161 -2.68136,-0.002 -5.97374,0.66024 -14.07355,2.83284 -1.75947,0.47195 -4.10226,0.92942 -5.20619,1.01661 l -2.00715,0.15853 -0.66474,-1.44949 z m 5.41728,-2.57889 c 1.14105,-0.41566 1.99293,-0.62017 6.64416,-1.59507 4.31983,-0.90545 8.22495,-1.88321 8.58907,-2.15054 0.41738,-0.30643 1.06781,-3.52876 2.61717,-12.9658 0.4333,-2.6392 1.05135,-5.59323 1.37343,-6.5645 0.32208,-0.97127 0.58561,-2.14984 0.58561,-2.61903 0,-1.10779 0.55971,-1.33337 1.22134,-0.49224 0.27567,0.35045 0.50122,0.74964 0.50122,0.88708 0,0.13744 0.81439,1.47902 1.80977,2.98129 1.82226,2.75024 2.00003,3.03622 3.83938,6.17653 0.55491,0.9474 1.22606,2.05476 1.49142,2.4608 0.26537,0.40603 0.56153,0.90434 0.65813,1.10736 0.26645,0.55993 1.55392,2.43273 1.75995,2.56006 0.0998,0.0617 0.50915,-0.0429 0.9097,-0.23239 1.13021,-0.53466 7.11972,-2.66836 9.63288,-3.43161 2.63813,-0.80121 2.66168,-0.83423 2.89725,-4.06374 0.0839,-1.15043 0.37601,-3.14367 0.64906,-4.42944 0.83342,-3.92454 1.17683,-5.87808 1.687,-9.59712 0.26919,-1.96249 0.67101,-4.89699 0.89293,-6.52112 0.22191,-1.62413 0.56209,-3.78348 0.75598,-4.79856 0.19389,-1.01508 0.40557,-2.33263 0.47041,-2.92789 0.0648,-0.59525 0.29269,-1.92408 0.50633,-2.95296 0.21367,-1.02887 0.54369,-2.92266 0.73342,-4.20843 0.48948,-3.31727 0.99057,-6.2464 1.41028,-8.24368 0.61137,-2.90949 0.74139,-4.30639 0.40079,-4.30639 -0.1658,0 -1.28783,0.33866 -2.4934,0.7526 -2.77347,0.95227 -7.16314,2.0768 -9.55529,2.44782 -1.01507,0.15744 -2.28854,0.35995 -2.82991,0.45003 l -0.98432,0.16378 -0.17592,1.8456 c -0.26949,2.82743 -0.86084,6.31904 -1.91712,11.31968 -0.52889,2.50387 -1.13664,5.65984 -1.35055,7.01328 -0.43051,2.72383 -0.88117,3.49742 -1.88627,3.23796 -0.43366,-0.11194 -0.96689,-0.89556 -2.15698,-3.16981 -1.44387,-2.7592 -4.45852,-7.6068 -5.34366,-8.59266 -0.33583,-0.37405 -0.47181,-0.3708 -1.84147,0.0439 -0.81337,0.24627 -1.72069,0.59986 -2.01625,0.78576 -0.29556,0.1859 -1.03569,0.4842 -1.64474,0.6629 -0.60905,0.1787 -1.77178,0.52369 -2.58384,0.76665 -0.81207,0.24296 -2.03856,0.56806 -2.72553,0.72243 -0.68698,0.15437 -1.68361,0.4299 -2.21472,0.61229 l -0.96567,0.33162 -0.27975,2.54556 c -0.15385,1.40006 -0.34743,3.76366 -0.43017,5.25244 -0.23497,4.22823 -0.6451,8.97566 -0.90174,10.43792 -0.12867,0.73313 -0.23394,1.85433 -0.23394,2.49156 0,1.5859 -0.20583,2.48291 -0.72879,3.17623 l -0.44263,0.5868 -0.66449,-0.52268 c -0.67894,-0.53406 -1.93729,-2.24293 -5.65533,-7.68007 -1.15688,-1.6918 -2.31557,-3.34813 -2.57486,-3.68074 l -0.47144,-0.60473 -1.31387,0.70834 c -0.72262,0.38958 -2.86417,1.65159 -4.75899,2.80445 -1.89481,1.15287 -4.1649,2.47984 -5.04464,2.94883 -0.87973,0.46899 -1.63464,0.87998 -1.67758,0.91333 -0.0429,0.0333 0.20696,0.6231 0.55533,1.31056 0.34836,0.68747 0.84201,1.77816 1.09698,2.42375 0.25498,0.64559 0.74386,1.78286 1.0864,2.52724 0.65387,1.42095 3.11535,7.07618 5.10329,11.7248 1.13146,2.64581 3.87914,8.23147 4.61505,9.38177 0.30295,0.47353 0.49363,0.53425 1.24864,0.39764 0.4901,-0.0887 1.44477,-0.36294 2.12149,-0.60944 z" />
      <path
         inkscape:connector-curvature="0"
         id="path2774"
         style="fill:#1a1a1a;stroke-width:1.9345789"
         d="m 259.57579,478.37709 c -0.76919,-0.69688 -4.89612,-2.01952 -7.37009,-2.36206 -2.91128,-0.40308 -5.96995,-0.88327 -6.44601,-1.01199 -0.16173,-0.0437 -0.36489,-0.45717 -0.45149,-0.91878 -0.14435,-0.76942 1.15687,-5.16122 3.47736,-11.73665 0.67143,-1.90258 3.27249,-11.01336 5.02318,-17.59472 1.01707,-3.82344 2.79657,-13.22867 3.0494,-16.11709 l 0.26916,-3.07485 1.38065,-0.54762 c 0.75936,-0.3012 2.69724,-0.88933 4.3064,-1.30697 1.60917,-0.41764 5.29591,-1.53673 8.19279,-2.48685 4.35899,-1.42968 8.6806,-2.59589 12.32883,-3.327 0.48298,-0.0968 0.74109,0.0453 1.19302,0.65652 0.3172,0.42901 0.60496,1.01895 0.63949,1.31098 0.23623,1.99762 0.48379,3.50795 0.87358,5.32952 0.24618,1.15043 0.57622,3.30978 0.73347,4.79856 0.43283,4.09832 0.9372,7.88704 1.35949,10.21232 0.20895,1.15043 0.43691,2.9222 0.50663,3.93728 0.11974,1.74413 0.23702,2.95573 0.87885,9.08093 0.14755,1.4079 0.3739,2.90283 0.50304,3.32208 0.20614,0.66936 0.82584,17.26652 0.7472,20.01203 -0.0164,0.57191 -0.1572,1.27792 -0.31295,1.56892 -0.31385,0.58642 0.0301,0.59463 -5.52346,-0.13184 -4.17329,-0.54592 -5.73767,-0.67223 -8.89273,-0.71804 -2.89804,-0.0421 -2.91721,-0.0462 -3.22981,-0.69844 -0.22878,-0.4773 -0.25085,-0.94593 -0.081,-1.71955 0.12837,-0.5849 0.35797,-2.39229 0.51022,-4.01641 0.15225,-1.62413 0.33376,-3.14675 0.40335,-3.3836 0.0696,-0.23685 0.0555,-0.65464 -0.0314,-0.92841 -0.15183,-0.47832 -0.32775,-0.49514 -4.50439,-0.43064 -4.1323,0.0638 -4.34993,0.0914 -4.41817,0.55929 -0.11308,0.77534 -1.05536,4.29361 -1.54883,5.78288 -0.24664,0.74439 -0.63021,2.07322 -0.85237,2.95296 -0.62344,2.46871 -1.0386,3.19904 -1.81855,3.19904 -0.36356,0 -0.7662,-0.0953 -0.89478,-0.2118 z m 28.77261,-5.38652 c -0.0508,-1.18426 -0.15464,-4.09108 -0.23077,-6.4596 -0.0761,-2.36852 -0.35025,-5.80134 -0.60915,-7.62848 -0.39823,-2.81036 -0.81318,-6.25208 -1.61518,-13.39704 -0.0768,-0.68459 -0.35866,-2.96113 -0.62626,-5.05896 -0.26759,-2.09783 -0.63455,-5.0877 -0.81544,-6.64416 -0.18089,-1.55646 -0.60993,-4.38022 -0.95342,-6.27504 -0.34345,-1.89482 -0.6994,-3.97111 -0.79097,-4.61399 -0.0916,-0.64289 -0.18682,-1.16889 -0.21163,-1.16889 -0.62364,0 -4.79861,1.10931 -5.06378,1.34547 -0.55698,0.49604 -1.8802,0.78066 -6.89005,1.48207 -4.17877,0.58505 -6.40181,1.04421 -9.35413,1.93206 -0.97044,0.29184 -1.14339,0.45176 -1.3987,1.29335 -0.99582,4.00946 -1.96935,7.95841 -2.779,11.94007 -0.29365,0.99903 -0.74009,2.64694 -0.9921,3.66202 -3.58528,14.44196 -6.17833,23.95025 -7.4827,27.43792 -0.45633,1.22012 -0.4818,1.82969 -0.0821,1.96582 0.40751,0.13881 8.64993,0.94648 9.8918,0.96929 0.92516,0.017 0.98545,-0.029 1.26615,-0.96647 0.16212,-0.54138 0.6515,-1.87021 1.08753,-2.95296 0.43603,-1.08276 1.20217,-3.04618 1.70255,-4.36316 0.50038,-1.31698 0.98708,-2.47181 1.08155,-2.56629 0.0945,-0.0945 1.69308,-0.19998 3.55241,-0.23444 1.85936,-0.0345 4.76485,-0.1654 6.45664,-0.29098 1.69181,-0.12558 3.15898,-0.15518 3.26042,-0.0658 0.10141,0.0894 -0.037,2.31163 -0.3076,4.93828 -0.7376,7.15964 -0.71622,7.37612 0.71774,7.25945 0.32702,-0.0266 2.09879,0.0872 3.93728,0.25281 1.83851,0.16565 4.24239,0.3146 5.34203,0.33101 l 1.99927,0.0298 -0.0923,-2.15319 z"
         sodipodi:nodetypes="cssssscccsssssssssssssssssssssssssccsssssssssssccssssssssssssssccc" />
      <path
         inkscape:connector-curvature="0"
         id="path2770"
         style="fill:#1a1a1a;stroke-width:1.9345789"
         d="m 266.40569,449.60927 c -0.49449,-0.16484 -0.334,-2.28812 0.26491,-3.50442 1.26392,-2.56689 2.70526,-3.72314 5.04198,-4.04469 2.04626,-0.28159 4.23984,1.75816 4.23984,3.94249 0,0.33139 0.13625,0.8207 0.30279,1.08736 0.53117,0.85054 -0.22678,1.29451 -2.31627,1.35676 -0.99042,0.0295 -2.52055,0.2454 -3.40028,0.47976 -1.95688,0.5213 -3.7357,0.81516 -4.13297,0.68274 z m 4.86183,-2.55389 c 0.96741,-0.28782 1.87331,-0.4109 2.31318,-0.31428 0.63582,0.13964 0.70032,0.10352 0.5347,-0.2995 -0.10359,-0.25208 -0.27831,-0.8344 -0.38826,-1.29407 -0.23535,-0.98387 -0.57566,-1.24703 -1.61914,-1.25215 -0.5942,-0.003 -1.44183,-0.0175 -2.20581,0.81129 -0.64176,0.74582 -1.69225,1.47802 -1.82178,2.9551 0.30615,0.36891 0.76598,0.11392 3.18711,-0.60639 z"
         sodipodi:nodetypes="cssssssccssssccc" />
    </g>
    <path
       inkscape:connector-curvature="0"
       d="m 80.050653,62.282737 c -0.338821,-0.05033 -0.452805,-0.08923 -0.593518,-0.202532 -0.197935,-0.159382 -0.385892,-0.459442 -0.387046,-0.617899 -10e-4,-0.152413 0.125226,-0.133892 0.210419,0.03085 0.03913,0.07572 0.159346,0.213134 0.267086,0.305356 0.163218,0.139707 0.245985,0.173042 0.496175,0.199835 0.263417,0.0282 0.333649,0.01687 0.57214,-0.09231 0.402021,-0.184049 0.406915,-0.194393 0.49633,-1.049119 0.04895,-0.468048 -0.01238,-1.305743 -0.09564,-1.305743 -0.0184,0 -0.102806,0.0346 -0.187591,0.0769 -0.249838,0.124645 -0.557832,0.06595 -0.749089,-0.142745 -0.236438,-0.258001 -0.195237,-0.509194 0.125415,-0.764558 0.10806,-0.08607 0.596693,-0.308408 0.678923,-0.308934 0.01892,-1.02e-4 0.06998,0.06922 0.113466,0.154096 0.04348,0.08487 0.09211,0.164997 0.108047,0.178054 0.122977,0.100721 0.172214,0.237101 0.178354,0.493978 0.0037,0.159208 0.03004,0.524503 0.05828,0.811765 0.03412,0.34692 0.03609,0.625929 0.0059,0.830928 -0.02496,0.169746 -0.04605,0.40478 -0.04684,0.522297 -10e-4,0.14708 -0.04409,0.287652 -0.138345,0.451074 -0.271785,0.471167 -0.426144,0.530655 -1.112448,0.428707 z m 0.791527,-2.98494 c 0.09374,-0.07641 0.118569,-0.130114 0.09693,-0.209567 -0.02935,-0.10782 -0.112999,-0.149665 -0.112999,-0.05655 0,0.02765 -0.02041,0.03765 -0.04538,0.02222 -0.02497,-0.01543 -0.03412,-0.0575 -0.02031,-0.09347 0.04585,-0.119428 -0.169753,-0.14076 -0.317635,-0.03143 -0.07431,0.05493 -0.15774,0.09989 -0.18541,0.09989 -0.04461,0 -0.03551,0.121095 0.02377,0.316818 0.03965,0.130802 0.377141,0.101984 0.561031,-0.0479 z"
       style="fill:#1a1a1a;stroke-width:0.26458332"
       id="path2832" />
    <path
       inkscape:connector-curvature="0"
       d="m 76.477775,60.129186 c -0.184157,-0.115815 -0.278259,-0.335886 -0.241226,-0.564121 0.02123,-0.130811 0.102945,-0.249812 0.326588,-0.475587 0.442639,-0.446862 0.691831,-0.494022 1.060848,-0.200767 0.230381,0.183082 0.352528,0.3646 0.352931,0.524478 4.09e-4,0.155852 -0.374949,0.555628 -0.640688,0.682388 -0.278704,0.132947 -0.675786,0.148494 -0.858453,0.03361 z m 0.962053,-0.412374 c 0.217052,-0.09069 0.231615,-0.163816 0.08876,-0.44572 -0.126784,-0.250199 -0.208424,-0.294666 -0.311954,-0.16992 -0.03624,0.04365 -0.09684,0.0606 -0.153013,0.04277 -0.1216,-0.0386 -0.415877,0.239345 -0.415877,0.392803 0,0.07215 -0.02803,0.109386 -0.08235,0.109386 -0.05039,0 -0.01814,0.03677 0.08309,0.09475 0.184977,0.105938 0.503361,0.09625 0.791341,-0.02408 z"
       style="fill:#1a1a1a;stroke-width:0.26458332"
       id="path2826" />
    <path
       inkscape:connector-curvature="0"
       id="path2818"
       d="m 71.557819,59.769702 c 0.157002,-0.08119 0.309984,-0.244263 0.287292,-0.306246 -0.0092,-0.02515 -0.1203,0.0484 -0.246871,0.163438 -0.242355,0.220278 -0.251291,0.251855 -0.04042,0.142808 z"
       style="fill:#1a1a1a;stroke-width:0.26458332" />
    <path
       inkscape:connector-curvature="0"
       d="m 70.665071,60.138738 c -0.481106,-0.186075 -0.617259,-0.358346 -0.617259,-0.780991 0,-0.344214 0.128978,-0.560124 0.472341,-0.790684 0.332153,-0.223036 0.654689,-0.293248 0.929893,-0.202422 0.09406,0.03103 0.185614,0.04183 0.203448,0.02397 0.01783,-0.01785 0.03143,-0.54347 0.0302,-1.168028 -0.0023,-1.172048 0.0099,-1.242011 0.182942,-1.050778 0.261833,0.289321 0.375651,1.258286 0.251106,2.13779 -0.05479,0.386905 -0.06208,0.563053 -0.02611,0.630274 0.02746,0.05131 0.05356,0.224035 0.05799,0.38383 0.008,0.286551 0.0052,0.293031 -0.197211,0.472684 -0.112898,0.100191 -0.27245,0.215903 -0.354573,0.257154 -0.152051,0.07637 -0.803336,0.137257 -0.932767,0.08719 z m 0.546038,-0.481083 c 0.07835,-0.0396 0.224896,-0.13682 0.325665,-0.216032 0.170451,-0.13398 0.181441,-0.15734 0.157602,-0.335051 -0.04037,-0.301031 -0.163759,-0.368622 -0.643061,-0.352276 -0.396733,0.01353 -0.397394,0.01377 -0.55791,0.199457 -0.185337,0.214403 -0.21933,0.482166 -0.07751,0.610515 0.252527,0.228532 0.475972,0.254772 0.795213,0.09338 z"
       style="fill:#1a1a1a;stroke-width:0.26458332"
       id="path2820" />
    <path
       inkscape:connector-curvature="0"
       id="path2814"
       d="m 78.455759,60.066523 c -0.103146,-0.110725 -0.129966,-0.26199 -0.164474,-0.927724 -0.01737,-0.335395 -0.0075,-0.448737 0.04326,-0.490773 0.08146,-0.0676 0.164987,-0.02161 0.164987,0.09086 0,0.145042 0.049,0.145333 0.331141,0.002 0.150767,-0.07662 0.316369,-0.1393 0.367998,-0.1393 0.05164,0 0.161611,-0.02361 0.244399,-0.05247 0.187053,-0.0652 0.309531,0.01225 0.262502,0.166009 -0.04916,0.160732 -0.118822,0.226436 -0.183312,0.172907 -0.07061,-0.0586 -0.253088,-0.0088 -0.58576,0.159748 -0.334269,0.169389 -0.37372,0.266151 -0.2727,0.668959 0.04388,0.175077 0.06831,0.348342 0.05424,0.385031 -0.03732,0.09724 -0.153413,0.08165 -0.262274,-0.0352 z"
       style="fill:#1a1a1a;stroke-width:0.26458332" />
    <path
       inkscape:connector-curvature="0"
       id="path2808"
       d="m 73.87799,60.041818 c -0.0698,-0.0698 -0.02548,-0.541016 0.09433,-1.00292 0.0799,-0.308077 0.110069,-0.505178 0.08166,-0.533583 -0.02477,-0.02477 -0.161756,-0.05771 -0.304406,-0.0732 -0.301405,-0.03272 -0.375369,-0.08207 -0.299551,-0.199867 0.05692,-0.08843 0.09419,-0.0917 0.495489,-0.04344 l 0.26537,0.03191 0.07529,-0.272534 c 0.07329,-0.265284 0.275931,-1.269169 0.294628,-1.459573 0.0097,-0.09963 0.149866,-0.156171 0.216896,-0.08755 0.05015,0.05133 -0.0054,0.451614 -0.169542,1.220218 -0.143778,0.673553 -0.146173,0.663393 0.168185,0.71366 0.204498,0.0327 0.29991,0.123722 0.254301,0.242587 -0.02613,0.06809 -0.07104,0.0783 -0.2501,0.05688 -0.120035,-0.01436 -0.254341,-0.0401 -0.298444,-0.05721 -0.06427,-0.02491 -0.08608,0.0051 -0.109828,0.150944 -0.0658,0.404218 -0.221427,1.138182 -0.262626,1.238489 -0.04161,0.101315 -0.183223,0.143621 -0.251661,0.07518 z"
       style="fill:#1a1a1a;stroke-width:0.26458332" />
    <path
       inkscape:connector-curvature="0"
       d="m 72.816099,59.694856 c -0.124657,-0.05234 -0.251766,-0.280714 -0.251766,-0.452312 0,-0.292089 0.281665,-0.593519 0.554598,-0.593519 0.187182,0 0.455708,0.218045 0.349422,0.283734 -0.0422,0.02608 -0.04422,0.04622 -0.0069,0.06924 0.0289,0.01786 0.0534,0.0152 0.05445,-0.0059 0.0011,-0.02113 0.03371,0.02021 0.07259,0.09188 0.06266,0.115512 0.06259,0.145957 -6.72e-4,0.268434 -0.130302,0.251986 -0.544694,0.433765 -0.771602,0.338477 z m 0.34682,-0.32895 c 0.166973,-0.101821 0.225156,-0.248753 0.143,-0.361111 -0.04953,-0.06773 -0.07734,-0.0602 -0.256126,0.06931 -0.183431,0.132878 -0.249472,0.269892 -0.168916,0.35045 0.05188,0.05188 0.126123,0.03643 0.282042,-0.05865 z"
       style="fill:#1a1a1a;stroke-width:0.26458332"
       id="path2800" />
  </g>
</svg>
