<?xml version="1.0" encoding="UTF-8" standalone="no"?>
<!-- Created with Inkscape (http://www.inkscape.org/) -->

<svg
   xmlns:dc="http://purl.org/dc/elements/1.1/"
   xmlns:cc="http://creativecommons.org/ns#"
   xmlns:rdf="http://www.w3.org/1999/02/22-rdf-syntax-ns#"
   xmlns:svg="http://www.w3.org/2000/svg"
   xmlns="http://www.w3.org/2000/svg"
   xmlns:sodipodi="http://sodipodi.sourceforge.net/DTD/sodipodi-0.dtd"
   xmlns:inkscape="http://www.inkscape.org/namespaces/inkscape"
   width="71.4375mm"
   height="48.380951mm"
   viewBox="0 0 71.4375 48.380951"
   version="1.1"
   id="svg8"
   inkscape:version="0.92.3 (2405546, 2018-03-11)"
   sodipodi:docname="favicond.svg">
  <defs
     id="defs2" />
  <sodipodi:namedview
     id="base"
     pagecolor="#ffffff"
     bordercolor="#666666"
     borderopacity="1.0"
     inkscape:pageopacity="0.0"
     inkscape:pageshadow="2"
     inkscape:zoom="5.6"
     inkscape:cx="51.626416"
     inkscape:cy="137.6968"
     inkscape:document-units="mm"
     inkscape:current-layer="layer1"
     showgrid="false"
     fit-margin-top="0"
     fit-margin-left="0"
     fit-margin-right="0"
     fit-margin-bottom="0"
     inkscape:window-width="2194"
     inkscape:window-height="1135"
     inkscape:window-x="260"
     inkscape:window-y="515"
     inkscape:window-maximized="0" />
  <metadata
     id="metadata5">
    <rdf:RDF>
      <cc:Work
         rdf:about="">
        <dc:format>image/svg+xml</dc:format>
        <dc:type
           rdf:resource="http://purl.org/dc/dcmitype/StillImage" />
        <dc:title />
      </cc:Work>
    </rdf:RDF>
  </metadata>
  <g
     inkscape:label="Layer 1"
     inkscape:groupmode="layer"
     id="layer1"
     transform="translate(-48.75893,-34.306549)">
    <rect
       style="opacity:1;vector-effect:none;fill:#51738c;fill-opacity:1;stroke:none;stroke-width:0.28222221;stroke-linecap:butt;stroke-linejoin:miter;stroke-miterlimit:4;stroke-dasharray:none;stroke-dashoffset:0;stroke-opacity:1;marker:none"
       id="rect4516"
       width="25.925144"
       height="25.925144"
       x="51.832527"
       y="36.650322"
       inkscape:export-xdpi="501.62885"
       inkscape:export-ydpi="501.62885" />
    <path
       inkscape:connector-curvature="0"
       id="path845"
       d="m 75.812316,40.024395 c -4.320875,0 -7.850031,2.280332 -9.566953,6.123534 -1.716923,3.843202 -3.467489,8.058845 -5.207523,12.252516 L 45.543511,15.163777 H 43.29224 l 16.717045,45.798121 h 2.001279 l 3.390016,-7.933136 c 1.011225,4.8482 5.214283,8.295041 10.550886,8.295041 1.410941,0 2.706763,-0.224146 3.884199,-0.667347 1.228335,0.431933 2.565399,0.667347 3.972599,0.667347 3.251931,0 6.03129,-1.225042 8.004676,-3.480281 1.667653,-1.921129 2.556997,-4.065001 2.695963,-6.375924 h -5.176028 v 1.865358 h 2.702405 c -0.305731,1.336436 -1.000509,2.47799 -2.167869,3.647373 -1.584272,1.587017 -3.752243,2.450194 -6.142553,2.450194 -0.504333,0 -0.997799,-0.03912 -1.477969,-0.113543 1.21618,-0.932239 2.252117,-2.185875 3.099041,-3.756548 h -2.279145 c -0.86163,1.085852 -1.361963,1.642626 -2.056815,2.171633 -0.390956,0.311707 -0.824209,0.582987 -1.285788,0.813399 -2.983248,-1.408989 -5.004641,-4.363633 -5.004641,-7.857502 0,-3.559757 2.022028,-6.530324 5.03584,-7.921675 0.329627,0.159519 0.647117,0.339819 0.948847,0.543376 0.917209,0.584692 1.473034,1.197417 2.251281,2.422484 h 2.307021 c -0.673525,-1.503263 -1.714846,-2.758891 -3.015023,-3.706958 0.470583,-0.07055 0.954478,-0.107523 1.449483,-0.107523 3.168541,0 5.836746,1.447831 7.254253,3.953651 h 2.307024 c -1.361914,-3.508154 -5.253217,-5.846931 -9.728086,-5.846931 -1.360082,0 -2.653913,0.230492 -3.844061,0.653801 -1.193516,-0.426083 -2.499992,-0.653801 -3.873804,-0.653801 z m 0.0834,1.893274 c 0.415389,0 0.824482,0.02685 1.225267,0.07812 -2.736096,1.906976 -4.486123,5.032024 -4.486123,8.636523 0,3.632991 1.785617,6.777778 4.583879,8.698817 -0.427564,0.06475 -0.861258,0.09936 -1.295152,0.09936 -4.752811,0 -8.671697,-3.953543 -8.671697,-8.770281 0,-4.955951 3.752044,-8.742573 8.643826,-8.742573 z"
       style="font-style:normal;font-variant:normal;font-weight:normal;font-stretch:normal;font-size:30.16461563px;line-height:1.25;font-family:'URW Gothic L';-inkscape-font-specification:'URW Gothic L, Normal';font-variant-ligatures:normal;font-variant-caps:normal;font-variant-numeric:normal;font-feature-settings:normal;text-align:start;letter-spacing:0px;word-spacing:0px;writing-mode:lr-tb;text-anchor:start;fill:#ffffff;fill-opacity:1;stroke:#ffffff;stroke-width:0.79374999;stroke-miterlimit:4;stroke-dasharray:none;stroke-opacity:1"
       sodipodi:nodetypes="ccccccccscscccccsscccccscccccsccscccccscsscc" />
    <path
       style="opacity:1;vector-effect:none;fill:#51738c;fill-opacity:1;stroke:none;stroke-width:0.28222221;stroke-linecap:butt;stroke-linejoin:miter;stroke-miterlimit:4;stroke-dasharray:none;stroke-dashoffset:0;stroke-opacity:1;marker:none"
       d="m 64.921536,55.175457 3.385733,-7.879398 c 0.406095,-1.058409 2.472328,-4.073259 6.080903,-4.780658 3.618504,-0.709346 5.805587,0.416308 5.805587,0.416308 L 78.546018,63.556306 67.153655,62.18655 Z"
       id="path4518"
       inkscape:connector-curvature="0"
       sodipodi:nodetypes="ccscccc" />
  </g>
</svg>
