<?xml version="1.0" encoding="UTF-8" standalone="no"?>
<!-- Created with Inkscape (http://www.inkscape.org/) -->

<svg
   xmlns:dc="http://purl.org/dc/elements/1.1/"
   xmlns:cc="http://creativecommons.org/ns#"
   xmlns:rdf="http://www.w3.org/1999/02/22-rdf-syntax-ns#"
   xmlns:svg="http://www.w3.org/2000/svg"
   xmlns="http://www.w3.org/2000/svg"
   xmlns:sodipodi="http://sodipodi.sourceforge.net/DTD/sodipodi-0.dtd"
   xmlns:inkscape="http://www.inkscape.org/namespaces/inkscape"
   width="99.785713mm"
   height="114.1488mm"
   viewBox="0 0 99.785713 114.1488"
   version="1.1"
   id="svg8"
   inkscape:version="0.92.3 (2405546, 2018-03-11)"
   sodipodi:docname="whiterose_pdf.svg">
  <defs
     id="defs2" />
  <sodipodi:namedview
     id="base"
     pagecolor="#ffffff"
     bordercolor="#666666"
     borderopacity="1.0"
     inkscape:pageopacity="0.0"
     inkscape:pageshadow="2"
     inkscape:zoom="0.98994949"
     inkscape:cx="250.99448"
     inkscape:cy="257.98096"
     inkscape:document-units="mm"
     inkscape:current-layer="layer1"
     showgrid="false"
     fit-margin-top="0"
     fit-margin-left="0"
     fit-margin-right="0"
     fit-margin-bottom="0"
     inkscape:window-width="1351"
     inkscape:window-height="1184"
     inkscape:window-x="1659"
     inkscape:window-y="499"
     inkscape:window-maximized="0" />
  <metadata
     id="metadata5">
    <rdf:RDF>
      <cc:Work
         rdf:about="">
        <dc:format>image/svg+xml</dc:format>
        <dc:type
           rdf:resource="http://purl.org/dc/dcmitype/StillImage" />
        <dc:title></dc:title>
      </cc:Work>
    </rdf:RDF>
  </metadata>
  <g
     inkscape:label="Layer 1"
     inkscape:groupmode="layer"
     id="layer1"
     transform="translate(-49.514877,2.3571429)">
    <path
       style="opacity:1;vector-effect:none;fill:#666666;fill-opacity:1;stroke:none;stroke-width:2.53999996;stroke-linecap:round;stroke-linejoin:round;stroke-miterlimit:4;stroke-dasharray:none;stroke-dashoffset:0;stroke-opacity:1"
       d="M 63.079548,5.3843894 H 116.98414 L 134.25383,25.213077 V 106.145 H 63.079548 Z"
       id="rect887"
       inkscape:connector-curvature="0"
       sodipodi:nodetypes="cccccc" />
    <rect
       style="opacity:1;vector-effect:none;fill:#b31b1b;fill-opacity:1;stroke:none;stroke-width:0.79375005;stroke-linecap:butt;stroke-linejoin:miter;stroke-miterlimit:4;stroke-dasharray:none;stroke-dashoffset:0;stroke-opacity:1"
       id="rect889"
       width="68.833595"
       height="33.185928"
       x="64.278885"
       y="27.887426" />
    <path
       style="fill:#ffffff;stroke-width:1"
       d="m 89.713535,99.942396 c -0.280229,-0.748427 -3.683946,-6.537535 -3.822229,-6.496103 -0.09718,0.02911 -0.918326,1.317409 -1.824793,2.862894 -0.906465,1.545486 -1.865217,3.456889 -1.964074,3.617319 z m 22.084375,4.546164 c 5.9274,-1.52105 10.96336,-5.61187 13.50668,-10.971731 2.49131,-5.250325 2.56663,-11.449111 0.20347,-16.74688 -1.2372,-2.773527 -3.89991,-6.065798 -6.35712,-7.860136 -3.71954,-2.716155 -7.46956,-3.950402 -12.09532,-3.980936 -2.70413,-0.01785 -3.94398,0.169155 -6.47282,0.976288 -10.117954,3.229352 -15.929613,13.878409 -13.24445,24.268603 0.569379,2.203194 2.276543,5.527933 3.803222,7.406834 3.135017,3.858338 7.961829,6.591718 12.873788,7.290348 1.91542,0.27243 6.01587,0.0709 7.78255,-0.38239 z m -7.29218,-0.23927 c -4.08091,-0.5007 -8.349971,-2.58841 -11.350196,-5.550641 -1.764195,-1.741845 -2.878135,-3.310465 -3.933848,-5.539553 -1.380337,-2.914496 -1.776738,-4.768592 -1.760808,-8.235879 0.01472,-3.186766 0.239378,-4.45636 1.247691,-7.048586 0.954371,-2.45356 2.408337,-4.6002 4.511773,-6.661195 4.034169,-3.952745 8.962218,-5.833181 14.619858,-5.578611 5.98255,0.269189 11.18715,2.981023 14.76642,7.693989 4.54551,5.985259 5.20456,13.964474 1.70038,20.587089 -2.54824,4.815958 -7.28525,8.555757 -12.47003,9.844907 -2.66191,0.66185 -4.77214,0.80247 -7.33124,0.48848 z m 7.34227,-1.32673 c 6.48014,-1.87275 11.41313,-6.803234 13.20309,-13.19636 0.351,-1.253694 0.41865,-2.018734 0.41603,-4.70575 -0.003,-2.93209 -0.0489,-3.358215 -0.5367,-4.943513 -0.97797,-3.179651 -2.50369,-5.756966 -4.72917,-7.988729 -5.80644,-5.822832 -14.56913,-7.158905 -21.957589,-3.347943 -4.676253,2.412 -8.009519,6.611201 -9.449816,11.904722 -0.5696,2.093454 -0.525188,7.020601 0.08238,9.139849 0.575883,2.008708 1.921791,4.756447 3.074513,6.276764 1.151869,1.519194 3.662599,3.835286 5.070613,4.67755 1.63854,0.98014 4.030659,1.94847 5.851539,2.3687 2.27502,0.52501 6.84372,0.4307 8.97511,-0.18529 z m -7.83264,-2.09024 c -1.56427,-1.133744 -2.62345,-1.997451 -2.35376,-1.919343 2.20303,0.638029 3.63558,0.883949 5.15711,0.885289 1.68785,0.001 4.38129,-0.4255 5.10444,-0.80921 0.75488,-0.400539 0.50665,0.01079 -0.39688,0.65743 -0.51701,0.370094 -1.75398,1.256064 -2.74882,1.968814 -0.99485,0.71276 -1.83339,1.29197 -1.86341,1.28716 -0.0301,-0.004 -1.33442,-0.9364 -2.89868,-2.07014 z m 1.79987,-4.037887 -1.21661,-0.839414 1.91501,0.0264 c 1.05327,0.0144 2.16515,-0.04278 2.47085,-0.127289 0.7564,-0.209084 0.55695,0.03447 -0.80233,0.979793 l -1.15031,0.799974 z m -7.983599,0.428687 c -0.22396,-0.598977 -1.26983,-3.727251 -1.26983,-3.798136 0,-0.04344 0.61718,0.487546 1.37151,1.179955 0.75876,0.696487 2.05131,1.614137 2.893149,2.054036 l 1.52166,0.79512 -2.21281,0.006 c -1.595639,0.0045 -2.238139,-0.06174 -2.303679,-0.237026 z m 14.881239,-0.428284 c 1.65663,-0.827292 3.21974,-2.007173 4.228,-3.191456 l 0.76604,-0.899768 -0.77753,2.381294 -0.77752,2.381295 -2.39051,-5.81e-4 -2.3905,-5.79e-4 1.34202,-0.670175 z m 6.24616,-2.946536 c 1.68774,-2.294323 2.6688,-5.031447 2.8505,-7.952763 l 0.12105,-1.944645 1.06637,3.302838 1.06633,3.302849 -0.63906,0.489222 c -0.35147,0.26907 -1.65746,1.223912 -2.90222,2.121872 l -2.2632,1.632649 z M 92.933104,92.875445 c -3.525963,-2.491117 -3.282233,-1.829644 -2.047207,-5.556029 l 1.051974,-3.174064 0.127445,1.750185 c 0.21242,2.917098 0.882753,4.931104 2.431007,7.303941 0.48438,0.742364 0.860397,1.34731 0.83562,1.344333 -0.02472,-0.0028 -1.104275,-0.753751 -2.398839,-1.668366 z m 8.468876,-0.802634 C 101.0662,91.51969 98.128061,81.837222 98.260031,81.718716 c 0.0908,-0.08156 2.094629,-1.52677 4.452859,-3.211586 l 4.28772,-3.063299 1.05379,0.75316 c 0.5796,0.414237 2.59291,1.869422 4.47403,3.233743 l 3.42022,2.480582 -1.7172,5.10355 -1.71719,5.103552 -5.51096,0.05159 c -3.03101,0.02838 -5.55162,-0.01536 -5.60132,-0.09723 z m 7.00449,-4.883907 c 1.20186,-0.681404 1.64417,-2.476854 0.9059,-3.677336 -1.86362,-3.03039 -6.51744,-0.613525 -4.98472,2.588721 0.38253,0.79925 0.65117,1.029015 1.59828,1.36697 0.82227,0.293413 1.63241,0.202502 2.48054,-0.278355 z m 8.23979,3.237669 c 0.47126,-0.713052 1.23495,-3.027918 1.39754,-4.236167 l 0.14352,-1.066384 0.56527,1.826512 c 0.31089,1.004577 0.5425,1.8481 0.51469,1.874484 -0.12006,0.113831 -2.42885,1.771699 -2.66986,1.917085 -0.18767,0.1132 -0.17333,0.02065 0.0488,-0.31553 z M 95.907224,89.676905 c -0.6109,-0.433715 -1.110734,-0.897969 -1.110734,-1.031678 0,-0.13372 0.201608,-0.835664 0.448023,-1.55989 l 0.448036,-1.316777 0.255759,1.227682 c 0.140659,0.675225 0.462473,1.732024 0.715103,2.34845 0.25264,0.616423 0.43576,1.120771 0.40695,1.120771 -0.0288,0 -0.55224,-0.354851 -1.163137,-0.788558 z M 120.09935,84.13513 c 0,-1.400345 -0.54413,-3.410037 -1.35831,-5.016838 -0.41256,-0.814181 -0.65084,-1.423716 -0.52952,-1.354527 0.90173,0.514239 3.45699,2.463685 3.45699,2.637387 0,0.327238 -1.37314,4.619298 -1.47783,4.619298 -0.0502,0 -0.0914,-0.398399 -0.0914,-0.88532 z M 92.897836,82.20866 92.29039,80.380292 92.709814,80.00626 c 0.421084,-0.375513 2.34309,-1.776058 2.84583,-2.073742 0.147826,-0.08753 0.04332,0.224437 -0.232365,0.693264 -0.612688,1.042134 -1.506423,3.637857 -1.510529,4.387072 -0.0062,1.248547 -0.326162,0.967855 -0.914914,-0.804194 z m 22.455054,-4.394043 c -0.5946,-0.797353 -2.17732,-1.987691 -3.60168,-2.708769 l -1.16496,-0.589748 2.04235,0.05023 2.04235,0.05023 0.64074,1.896031 c 0.35241,1.042819 0.60552,1.896034 0.56247,1.896034 -0.0431,0 -0.27762,-0.267309 -0.52127,-0.594021 z M 98.372261,77.606968 c 0.0657,-0.173533 0.30685,-0.939233 0.53584,-1.701568 l 0.41637,-1.386061 h 1.979489 1.97951 l -1.39724,0.693026 c -0.76849,0.381163 -1.900389,1.14687 -2.515349,1.70157 -0.61495,0.554697 -1.06432,0.866563 -0.99862,0.693033 z M 94.20805,77.199635 c 0,-0.04675 0.476957,-1.522156 1.059902,-3.27868 l 1.059911,-3.193683 3.500488,-0.03968 3.500509,-0.03968 -1.27496,0.443786 c -2.925799,1.018423 -5.222009,2.677157 -6.995372,5.053363 -0.46777,0.62676 -0.850478,1.101316 -0.850478,1.054567 z m 24.72746,-0.964761 c -0.83038,-1.197405 -2.78892,-2.971282 -4.24965,-3.848994 -0.60273,-0.362158 -1.77171,-0.900482 -2.59772,-1.196274 l -1.50189,-0.537804 3.45781,-0.0109 3.4578,-0.01091 0.20268,0.534777 c 0.35498,0.936681 1.98247,5.967336 1.94269,6.004999 -0.0211,0.01991 -0.34132,-0.400817 -0.71172,-0.934943 z m -15.44505,-3.982477 c 0.62532,-0.619951 3.58763,-2.543957 3.75694,-2.440112 0.80817,0.495673 3.42093,2.454151 3.3577,2.516856 -0.0425,0.04216 -0.46136,-0.02795 -0.93074,-0.155816 -1.05105,-0.286292 -4.28017,-0.304221 -5.42909,-0.03015 -0.46689,0.111381 -0.80655,0.160518 -0.75481,0.1092 z m 28.37764,27.617229 c 0,-0.35324 -3.79002,-6.694345 -3.91745,-6.554322 -0.27763,0.30504 -3.73222,6.323332 -3.73222,6.501952 0,0.10029 1.65736,0.177 3.82485,0.177 2.10365,0 3.82482,-0.0561 3.82482,-0.12462 z M 110.65164,63.063077 c -0.162,-0.439328 -3.60732,-6.427594 -3.69995,-6.430856 -0.0572,-0.002 -0.80381,1.199595 -1.65918,2.670233 -0.85538,1.470642 -1.72205,2.9583 -1.92594,3.305905 l -0.3707,0.632012 h 3.86057 c 2.24148,0 3.83317,-0.07436 3.7952,-0.177294 z"
       id="path839"
       inkscape:connector-curvature="0"
       sodipodi:nodetypes="ccscccscscsscscccccscssssccccccsssccccsccccccsccccccccscccccccsccccccccsccccccccscsccccccccccccccccsccccccccccccsccssscsccsssccscccccsccccscccccccccsscccscsscscccccccccccsccscsssccsccsc" />
    <text
       xml:space="preserve"
       style="font-style:normal;font-variant:normal;font-weight:bold;font-stretch:normal;font-size:33.03684235px;line-height:1.25;font-family:Cousine;-inkscape-font-specification:'Cousine, Bold';font-variant-ligatures:normal;font-variant-caps:normal;font-variant-numeric:normal;font-feature-settings:normal;text-align:start;letter-spacing:0px;word-spacing:0px;writing-mode:lr-tb;text-anchor:start;fill:#ffffff;fill-opacity:1;stroke:none;stroke-width:0.26458335"
       x="68.719788"
       y="55.508797"
       id="text893"><tspan
         sodipodi:role="line"
         id="tspan891"
         x="68.719788"
         y="55.508797"
         style="font-style:normal;font-variant:normal;font-weight:bold;font-stretch:normal;font-size:33.03684235px;font-family:Cousine;-inkscape-font-specification:'Cousine, Bold';font-variant-ligatures:normal;font-variant-caps:normal;font-variant-numeric:normal;font-feature-settings:normal;text-align:start;writing-mode:lr-tb;text-anchor:start;fill:#ffffff;stroke-width:0.26458335">PDF</tspan></text>
    <path
       style="opacity:1;vector-effect:none;fill:#b3b3b3;fill-opacity:1;stroke:none;stroke-width:0.79374999;stroke-linecap:butt;stroke-linejoin:miter;stroke-miterlimit:4;stroke-dasharray:none;stroke-dashoffset:0;stroke-opacity:1"
       d="m 116.0487,6.3198326 c 0,0 1.04294,2.1199206 0.73859,6.7236584 -0.34562,5.227872 -8.89648,12.30148 -9.44638,11.476616 8.03335,7.437554 21.53317,6.297655 26.91292,2.764272 L 116.0487,6.3198326 v 0"
       id="path896"
       inkscape:connector-curvature="0"
       sodipodi:nodetypes="cscccc" />
    <path
       sodipodi:nodetypes="ccccccccccc"
       inkscape:connector-curvature="0"
       id="path933"
       d="m 64.961025,5.3843894 h 49.613005 c 1.63738,0.031391 3.17633,0.9347947 3.75013,1.5385866 l 14.65896,16.8311 c 0.6652,0.694544 1.40434,2.293016 1.27071,3.530303 v 76.782391 c 0.07,0.92659 -0.79431,2.10185 -1.63144,2.07823 H 65.617866 c -1.990645,0.0519 -2.488205,-1.83075 -2.538318,-2.92267 V 7.6179922 c -0.0013,-1.0173358 1.139375,-2.2001941 1.881477,-2.2336028 z"
       style="opacity:1;vector-effect:none;fill:none;fill-opacity:1;stroke:#4d4d4d;stroke-width:2.53999996;stroke-linecap:round;stroke-linejoin:round;stroke-miterlimit:4;stroke-dasharray:none;stroke-dashoffset:0;stroke-opacity:1" />
  </g>
</svg>
